:version 1.10
:name ASF
:units
  mass 1
  length 1
  angle deg
:documentation
  ASF file generated by Kaydara
:root
  axis xyz
  order  tx ty tz rx ry rz
  position 0 0 0
  orientation 0 0 0
:bonedata
  begin
    id 1
    name RightUpLegDummy
    direction -0.718183 -0.695806 0.00816078
    length 4.904
    axis 0 0 0 xyz
  end
  begin
    id 2
    name RightUpLeg
    direction 3.53989e-006 -0.995788 0.0916897
    length 17.4976
    axis -3.49089 -0.000906621 0.000287158 xyz
    dof rx ry rz
  end
  begin
    id 3
    name RightLeg
    direction 0.00371093 -0.995096 -0.0988418
    length 16.5821
    axis 3.68512 0.0193738 -0.131023 xyz
    dof rx ry rz
  end
  begin
    id 4
    name RightFoot
    direction 0.000791514 -0.46099 0.887405
    length 3.77069
    axis 4.84075e-005 -0.120479 -0.188788 xyz
    dof rx ry rz
  end
  begin
    id 5
    name RightToes
    direction 0.00124746 -0.014064 0.9999
    length 3.85082
    axis 0.00048216 0.542163 -0.142577 xyz
    dof rx ry rz
  end
  begin
    id 6
    name SpineDummy
    direction 8.36599e-015 1 5.97571e-016
    length 4.6813
    axis 0 0 0 xyz
  end
  begin
    id 7
    name Spine
    direction -4.63632e-008 0.999988 0.00495137
    length 10.1015
    axis -0.00138897 0.000121419 3.25764e-006 xyz
    dof rx ry rz
  end
  begin
    id 8
    name Spine1
    direction 0 0 0
    length 0
    axis -0.00138896 0.000121452 2.39764e-006 xyz
    dof rx ry rz
  end
  begin
    id 9
    name HEadDummy
    direction -3.91456e-008 0.999999 0.00127422
    length 3.43865
    axis -0.00138896 0.000121452 2.39764e-006 xyz
  end
  begin
    id 10
    name HEad
    direction -0.0222688 0.980941 0.193023
    length 5.12695
    axis -0.00138895 0.000121452 2.39764e-006 xyz
    dof rx ry rz
  end
  begin
    id 11
    name LeftShoulder1Dummy
    direction 0.998891 -0.0402508 -0.0244456
    length 3.5433
    axis -0.00138896 0.000121452 2.39764e-006 xyz
  end
  begin
    id 12
    name LeftShoulder1
    direction 0.99951 -0.000327743 0.0313091
    length 4.05031
    axis -0.00138896 0.000121452 2.39764e-006 xyz
    dof rx ry rz
  end
  begin
    id 13
    name LeftArm
    direction 0.998561 -0.00100054 -0.0536182
    length 10.3537
    axis -23.1894 0.134784 0.96751 xyz
    dof rx ry rz
  end
  begin
    id 14
    name LeftForeArm
    direction 0.998903 0.00866434 0.046012
    length 8.70632
    axis -9.91835 -0.06569 -0.177792 xyz
    dof rx ry rz
  end
  begin
    id 15
    name LeftHand
    direction 0.992938 -0.0411636 0.11126
    length 5.32135
    axis -0.00960227 -0.00340091 0.185174 xyz
    dof rx ry rz
  end
  begin
    id 16
    name RightShoulderDummy
    direction -0.998891 -0.0402509 -0.0244414
    length 3.5433
    axis -0.00138896 0.000121452 2.39764e-006 xyz
  end
  begin
    id 17
    name RightShoulder
    direction -0.99951 -0.000327827 0.0313133
    length 4.05031
    axis 0.215806 0.000203644 -0.00680151 xyz
    dof rx ry rz
  end
  begin
    id 18
    name RightArm
    direction -0.998573 -0.000999583 -0.053403
    length 10.3947
    axis -23.2009 -0.134239 -0.9641 xyz
    dof rx ry rz
  end
  begin
    id 19
    name RightForeArm
    direction -0.998898 0.00868026 0.0461306
    length 8.68355
    axis -9.92322 0.0658061 0.178869 xyz
    dof rx ry rz
  end
  begin
    id 20
    name RightHand
    direction -0.992843 -0.0414603 0.112003
    length 5.28593
    axis -0.00960634 0.00330671 -0.185226 xyz
    dof rx ry rz
  end
  begin
    id 21
    name LeftUpLegDummy
    direction 0.718183 -0.695806 0.00816078
    length 4.904
    axis 0 0 0 xyz
  end
  begin
    id 22
    name LeftUpLeg
    direction -6.8115e-006 -0.995793 0.0916336
    length 17.4976
    axis -3.48766 0.00143441 -0.000523914 xyz
    dof rx ry rz
  end
  begin
    id 23
    name LeftLeg
    direction -0.00601357 -0.995091 -0.0987824
    length 16.5821
    axis 3.68177 -0.00654038 -0.00028478 xyz
    dof rx ry rz
  end
  begin
    id 24
    name LeftFoot
    direction -0.00417578 -0.460984 0.887399
    length 3.77069
    axis 1.87232e-006 4.66002e-005 -8.1837e-006 xyz
    dof rx ry rz
  end
  begin
    id 25
    name LeftToes
    direction 0.00818058 -0.00485161 0.999955
    length 3.85048
    axis 1.06246e-005 4.65855e-005 -8.18502e-006 xyz
    dof rx ry rz
  end
:hierarchy
  begin
    root RightUpLegDummy SpineDummy LeftUpLegDummy
    RightUpLegDummy RightUpLeg
    RightUpLeg RightLeg
    RightLeg RightFoot
    RightFoot RightToes
    SpineDummy Spine
    Spine Spine1
    Spine1 HEadDummy LeftShoulder1Dummy RightShoulderDummy
    HEadDummy HEad
    LeftShoulder1Dummy LeftShoulder1
    LeftShoulder1 LeftArm
    LeftArm LeftForeArm
    LeftForeArm LeftHand
    RightShoulderDummy RightShoulder
    RightShoulder RightArm
    RightArm RightForeArm
    RightForeArm RightHand
    LeftUpLegDummy LeftUpLeg
    LeftUpLeg LeftLeg
    LeftLeg LeftFoot
    LeftFoot LeftToes
  end

:SAMPLES-PER-SECOND 30
:FULLY-SPECIFIED
:DEGREES
1
root  -7.53253 39.1103 6.11797 -176.741 36.2914 178.882
RightUpLeg  -8.13074 -0.476411 -7.72337
RightLeg  20.1746 -8.63411 -3.84719
RightFoot  -10.9232 -0.125096 13.8219
RightToes  -1.74624e-010 0 -3.6325e-017
Spine  6.37058 0.75965 -4.00337
Spine1  26.1745 0.716648 -0.0186212
HEad  -19.09 28.8892 -12.5376
LeftShoulder1  1.49167 -3.81608 -13.3952
LeftArm  9.62699 6.71465 -56.2015
LeftForeArm  90.5564 -78.8088 -105.787
LeftHand  -2.58178 -2.98497 35.0313
RightShoulder  0.823208 0.921336 11.5139
RightArm  5.81947 -9.77258 60.4914
RightForeArm  153.948 63.1455 158.91
RightHand  -1.08002 5.23113 -12.0616
LeftUpLeg  -13.6975 -0.879646 1.85456
LeftLeg  22.9961 6.37635 3.2941
LeftFoot  -11.1944 0.0718188 -3.70219
LeftToes  3.7286e-011 -1.5702e-010 -9.70233e-012
2
root  -7.42869 39.0329 6.07547 -176.913 36.043 178.766
RightUpLeg  -8.0372 -0.0940567 -7.70982
RightLeg  20.8198 -9.10868 -4.05701
RightFoot  -11.8504 -0.0189994 13.8614
RightToes  -1.74624e-010 0 -3.6325e-017
Spine  6.28421 0.763577 -4.26832
Spine1  26.3108 0.693089 -0.00756916
HEad  -18.8762 28.8215 -12.3711
LeftShoulder1  1.5089 -3.80061 -13.702
LeftArm  9.89709 6.44453 -56.356
LeftForeArm  88.6652 -78.9525 -103.353
LeftHand  -2.57425 -3.0941 34.5147
RightShoulder  0.837916 1.00758 11.4788
RightArm  5.44926 -9.72794 60.5087
RightForeArm  153.746 63.282 158.772
RightHand  -1.1273 5.2419 -12.5612
LeftUpLeg  -13.7206 -1.36635 1.85476
LeftLeg  23.588 6.55178 3.45787
LeftFoot  -11.8037 0.0550526 -3.89161
LeftToes  3.7286e-011 -1.5702e-010 -9.70233e-012
3
root  -7.30456 38.9621 6.03342 -177.146 35.7548 178.565
RightUpLeg  -8.02183 0.310917 -7.69241
RightLeg  21.673 -9.64628 -4.40824
RightFoot  -12.5987 0.0662337 13.8121
RightToes  -1.74624e-010 0 -3.6325e-017
Spine  6.33692 0.807322 -4.70476
Spine1  26.2599 0.63551 0.150055
HEad  -18.872 28.6742 -12.4337
LeftShoulder1  1.53282 -3.81955 -14.0021
LeftArm  9.9115 6.23727 -56.5363
LeftForeArm  85.1205 -79.0518 -100.283
LeftHand  -2.54451 -2.98925 34.542
RightShoulder  0.846641 1.00703 11.6985
RightArm  5.33082 -9.91922 60.4065
RightForeArm  153.514 63.3895 158.655
RightHand  -1.14848 5.28469 -12.7405
LeftUpLeg  -13.7456 -1.49408 1.82972
LeftLeg  24.2239 6.25909 3.40639
LeftFoot  -12.2739 0.0404693 -4.06401
LeftToes  3.7286e-011 -1.5702e-010 -9.70233e-012
4
root  -7.1693 38.9159 5.97296 -177.327 35.3823 178.419
RightUpLeg  -7.91064 0.364575 -7.63892
RightLeg  22.343 -10.1444 -4.76603
RightFoot  -13.0361 0.114644 13.6997
RightToes  -1.74624e-010 0 -3.6325e-017
Spine  6.39554 0.739135 -4.83272
Spine1  26.1437 0.609127 0.0101899
HEad  -19.022 28.4874 -12.5272
LeftShoulder1  1.56005 -3.87479 -14.2358
LeftArm  9.68082 6.32394 -56.5394
LeftForeArm  82.2768 -79.0818 -98.1922
LeftHand  -2.50985 -2.80524 34.8171
RightShoulder  0.840299 0.907116 12.013
RightArm  5.44618 -10.306 60.4695
RightForeArm  153.366 63.482 158.559
RightHand  -1.1793 5.37006 -12.9721
LeftUpLeg  -13.6321 -1.55902 1.84498
LeftLeg  24.5653 5.8529 3.25291
LeftFoot  -12.6656 0.0272412 -4.20931
LeftToes  3.7286e-011 -1.5702e-010 -9.70233e-012
5
root  -7.03178 38.8816 5.89311 -177.296 34.9245 178.498
RightUpLeg  -7.67633 0.0780375 -7.45234
RightLeg  22.6582 -10.3189 -4.91152
RightFoot  -13.4367 0.162416 13.82
RightToes  -1.74624e-010 0 -3.6325e-017
Spine  6.34657 0.551144 -4.58722
Spine1  26.0288 0.564317 -0.312662
HEad  -19.0706 28.2631 -12.4459
LeftShoulder1  1.58382 -3.89757 -14.5168
LeftArm  9.31789 6.75905 -56.286
LeftForeArm  81.3759 -79.0839 -97.5896
LeftHand  -2.51508 -2.7591 35.0696
RightShoulder  0.827579 0.819941 12.1143
RightArm  5.69201 -10.827 60.717
RightForeArm  153.34 63.4854 158.553
RightHand  -1.21918 5.42109 -13.3376
LeftUpLeg  -13.5705 -1.71342 2.02182
LeftLeg  24.8382 5.58716 3.15473
LeftFoot  -13.0785 0.0140362 -4.24512
LeftToes  3.7286e-011 -1.5702e-010 -9.70233e-012
6
root  -6.88082 38.8208 5.81462 -177.121 34.454 178.714
RightUpLeg  -7.47845 -0.221644 -7.10558
RightLeg  22.9754 -10.2567 -4.95346
RightFoot  -14.1369 0.246729 14.0041
RightToes  -1.74624e-010 0 -3.6325e-017
Spine  6.29175 0.448511 -4.52508
Spine1  25.8459 0.424014 -0.209604
HEad  -18.9192 27.8998 -12.1993
LeftShoulder1  1.60466 -3.89668 -14.8284
LeftArm  8.97047 7.48595 -55.9326
LeftForeArm  81.8859 -79.0931 -97.7843
LeftHand  -2.60214 -2.94066 35.4627
RightShoulder  0.815702 0.780107 12.0046
RightArm  6.00749 -11.3792 60.8193
RightForeArm  153.445 63.3937 158.645
RightHand  -1.21133 5.36737 -13.3161
LeftUpLeg  -13.8209 -1.71089 2.33956
LeftLeg  25.6048 5.2407 3.06946
LeftFoot  -13.5775 -0.000557423 -4.19859
LeftToes  3.7286e-011 -1.5702e-010 -9.70233e-012
7
root  -6.70391 38.7034 5.74519 -177.098 34.1656 178.725
RightUpLeg  -7.56099 -0.574718 -6.89431
RightLeg  23.9321 -10.2247 -5.15109
RightFoot  -15.2404 0.367655 13.8122
RightToes  -1.74624e-010 0 -3.6325e-017
Spine  6.33566 0.565226 -4.96359
Spine1  25.5787 0.341972 0.235687
HEad  -18.6226 27.3991 -11.812
LeftShoulder1  1.60488 -3.86521 -14.9326
LeftArm  8.7948 8.22772 -55.652
LeftForeArm  81.3114 -79.1465 -96.6065
LeftHand  -2.74226 -3.20369 36.1768
RightShoulder  0.805881 0.740803 11.9441
RightArm  6.31099 -11.8996 60.65
RightForeArm  153.561 63.3481 158.696
RightHand  -1.15285 5.26026 -12.815
LeftUpLeg  -14.2492 -1.47099 2.53726
LeftLeg  26.8984 4.74403 2.95228
LeftFoot  -14.2625 -0.0243694 -4.30505
LeftToes  3.7286e-011 -1.5702e-010 -9.70233e-012
8
root  -6.5122 38.5167 5.67683 -177.493 34.2183 178.291
RightUpLeg  -8.20401 -1.77261 -7.27446
RightLeg  26.2081 -9.39863 -5.22133
RightFoot  -16.6125 0.524817 13.773
RightToes  -1.74624e-010 0 -3.6325e-017
Spine  6.48456 0.79761 -5.57404
Spine1  25.345 0.55827 0.19984
HEad  -18.2101 26.982 -11.2784
LeftShoulder1  1.56595 -3.74207 -14.7487
LeftArm  8.83024 8.57881 -55.3947
LeftForeArm  76.8741 -79.2119 -92.0686
LeftHand  -2.83219 -3.27916 36.9798
RightShoulder  0.803741 0.714508 12.0197
RightArm  6.47031 -12.3185 60.4908
RightForeArm  153.409 63.4895 158.557
RightHand  -1.11486 5.17966 -12.4966
LeftUpLeg  -14.5094 -1.30825 2.38505
LeftLeg  28.4035 4.45835 2.95561
LeftFoot  -15.3078 -0.0736446 -4.76664
LeftToes  3.7286e-011 -1.5702e-010 -9.70233e-012
9
root  -6.32135 38.2446 5.62125 -178.396 34.5335 177.515
RightUpLeg  -9.66069 -4.00498 -8.3192
RightLeg  30.5021 -6.77033 -4.49961
RightFoot  -17.665 0.715852 15.0516
RightToes  -1.74624e-010 0 -3.6325e-017
Spine  6.83907 1.02806 -6.12072
Spine1  25.2736 1.00257 -0.473351
HEad  -17.7835 26.8102 -10.8178
LeftShoulder1  1.5167 -3.57616 -14.5416
LeftArm  8.87916 8.36841 -55.0443
LeftForeArm  68.8946 -79.136 -85.0794
LeftHand  -2.83275 -3.13245 37.5757
RightShoulder  0.813081 0.746421 12.1047
RightArm  6.44684 -12.4352 60.5331
RightForeArm  152.868 63.8203 158.206
RightHand  -1.1289 5.1145 -12.7229
LeftUpLeg  -14.5434 -1.409 1.98358
LeftLeg  30.2833 4.4432 3.15201
LeftFoot  -16.8288 -0.170436 -5.64219
LeftToes  3.7286e-011 -1.5702e-010 -9.70233e-012
10
root  -6.1156 37.8803 5.60642 -179.794 34.9139 176.572
RightUpLeg  -11.8744 -6.06235 -9.70132
RightLeg  36.8824 -3.58183 -3.13845
RightFoot  -17.4286 0.809873 17.4063
RightToes  -1.74624e-010 0 -3.6325e-017
Spine  7.5034 1.32662 -6.9612
Spine1  25.465 1.38288 -0.997755
HEad  -17.5599 26.743 -10.732
LeftShoulder1  1.50496 -3.52086 -14.5424
LeftArm  8.69562 7.69599 -54.6843
LeftForeArm  60.7325 -78.889 -78.3806
LeftHand  -2.83969 -3.02465 38.1052
RightShoulder  0.827057 0.800218 12.1991
RightArm  6.34171 -12.1035 60.6113
RightForeArm  152.252 64.2537 157.745
RightHand  -1.15532 5.05139 -13.0862
LeftUpLeg  -14.4694 -1.55492 1.55704
LeftLeg  32.8267 4.19409 3.26925
LeftFoot  -18.6814 -0.332869 -6.91702
LeftToes  3.7286e-011 -1.5702e-010 -9.70233e-012
11
root  -5.85534 37.4719 5.63288 178.415 35.2261 175.423
RightUpLeg  -14.3319 -6.95837 -11.3184
RightLeg  43.9105 -2.27782 -2.69407
RightFoot  -15.8869 0.662175 19.2316
RightToes  -1.74624e-010 0 -3.6325e-017
Spine  8.26545 1.75909 -8.37787
Spine1  25.9969 1.60907 -1.03795
HEad  -17.5495 26.5784 -10.9222
LeftShoulder1  1.52922 -3.60312 -14.6452
LeftArm  8.32914 6.58847 -54.4712
LeftForeArm  54.5034 -78.5831 -72.8352
LeftHand  -2.9154 -3.09216 38.7561
RightShoulder  0.839399 0.815934 12.4395
RightArm  6.22651 -11.5821 60.6402
RightForeArm  151.992 64.6994 157.295
RightHand  -1.1717 5.06218 -13.2529
LeftUpLeg  -14.1936 -1.52113 1.08887
LeftLeg  35.524 3.54751 3.09204
LeftFoot  -20.5008 -0.543784 -8.31183
LeftToes  3.7286e-011 -1.5702e-010 -9.70233e-012
12
root  -5.51852 37.1113 5.67052 176.658 35.2762 174.218
RightUpLeg  -16.4513 -6.90356 -13.2513
RightLeg  49.3721 -3.25368 -4.41967
RightFoot  -14.6371 0.467268 19.5137
RightToes  -1.74624e-010 0 -3.6325e-017
Spine  8.75481 2.13262 -9.79092
Spine1  26.7566 1.76718 -1.05936
HEad  -17.4631 26.3759 -11.002
LeftShoulder1  1.55442 -3.71468 -14.6639
LeftArm  8.05362 4.96318 -54.3823
LeftForeArm  49.8713 -78.2501 -67.9689
LeftHand  -2.95555 -3.11718 39.1431
RightShoulder  0.85127 0.809139 12.7797
RightArm  6.09457 -11.3763 60.8063
RightForeArm  152.064 65.0443 156.966
RightHand  -1.19819 5.17835 -13.4009
LeftUpLeg  -13.6553 -1.46396 0.629716
LeftLeg  37.5512 3.01563 2.87304
LeftFoot  -21.9988 -0.740367 -9.3415
LeftToes  3.7286e-011 -1.5702e-010 -9.70233e-012
13
root  -5.10416 36.9037 5.71068 175.603 34.7695 173.531
RightUpLeg  -17.9082 -6.56347 -15.2411
RightLeg  51.6259 -5.03316 -7.1271
RightFoot  -14.5294 0.419489 18.5174
RightToes  -1.74624e-010 0 -3.6325e-017
Spine  8.92513 2.19026 -10.4493
Spine1  27.4122 1.76649 -1.1569
HEad  -17.1939 26.309 -10.921
LeftShoulder1  1.57301 -3.82069 -14.6009
LeftArm  7.95043 2.95503 -54.3739
LeftForeArm  46.6113 -77.9559 -64.612
LeftHand  -2.85349 -2.90042 38.8038
RightShoulder  0.86044 0.812206 13.0003
RightArm  5.99998 -11.6286 61.065
RightForeArm  151.998 65.1757 156.828
RightHand  -1.23285 5.2868 -13.6435
LeftUpLeg  -12.9873 -1.73914 0.649691
LeftLeg  38.3787 2.75387 2.72706
LeftFoot  -22.8703 -0.875164 -10.007
LeftToes  3.7286e-011 -1.5702e-010 -9.70233e-012
14
root  -4.59128 36.8554 5.79855 175.478 33.6405 173.546
RightUpLeg  -18.8948 -6.307 -17.0279
RightLeg  50.6011 -6.366 -8.59287
RightFoot  -14.5037 0.386717 17.4571
RightToes  -1.74624e-010 0 -3.6325e-017
Spine  8.97445 1.98776 -10.6639
Spine1  27.6987 1.42232 -0.939029
HEad  -17.007 26.3746 -10.9328
LeftShoulder1  1.59127 -3.95591 -14.4437
LeftArm  7.85698 0.934902 -54.6091
LeftForeArm  45.5649 -77.8756 -64.0285
LeftHand  -2.69864 -2.6268 38.0206
RightShoulder  0.863573 0.826479 13.0073
RightArm  6.01025 -12.0228 61.0074
RightForeArm  151.522 65.0975 156.854
RightHand  -1.23953 5.26997 -13.7354
LeftUpLeg  -12.4794 -2.42655 1.4768
LeftLeg  38.1245 2.14451 2.19496
LeftFoot  -22.979 -0.98073 -10.9508
LeftToes  3.7286e-011 -1.5702e-010 -9.70233e-012
15
root  -3.94677 36.946 5.94467 176.033 32.1581 173.966
RightUpLeg  -19.5325 -6.23435 -18.6174
RightLeg  47.041 -7.11196 -8.43406
RightFoot  -13.2911 0.202404 17.1774
RightToes  -1.74624e-010 0 -3.6325e-017
Spine  8.88852 1.68287 -10.8537
Spine1  27.6112 0.839229 -0.427135
HEad  -16.9301 26.4874 -10.9606
LeftShoulder1  1.57945 -4.04151 -14.0055
LeftArm  7.68113 -0.809317 -55.1563
LeftForeArm  47.4957 -78.07 -66.1812
LeftHand  -2.63703 -2.60117 37.3279
RightShoulder  0.867088 0.878002 12.8353
RightArm  6.01347 -12.4032 60.5369
RightForeArm  150.988 64.9075 156.984
RightHand  -1.21223 5.17161 -13.5615
LeftUpLeg  -12.0514 -3.18586 2.98397
LeftLeg  36.7442 0.949586 1.14864
LeftFoot  -22.3093 -1.05345 -12.3291
LeftToes  3.7286e-011 -1.5702e-010 -9.70233e-012
